<!DOCTYPE svg PUBLIC "-//W3C//DTD SVG 20010904//EN" "http://www.w3.org/TR/2001/REC-SVG-20010904/DTD/svg10.dtd">
<svg version="1.0" xmlns="http://www.w3.org/2000/svg" width="512px" height="512px" viewBox="0 0 5120 5120" preserveAspectRatio="xMidYMid meet">
<g id="layer101" fill="#222222" stroke="none">
 <path d="M3346 4419 c-98 -14 -233 -55 -460 -138 -376 -138 -525 -211 -746 -362 -396 -271 -863 -733 -1147 -1134 -155 -219 -247 -399 -361 -706 -157 -420 -176 -496 -176 -699 0 -87 5 -169 13 -205 68 -301 280 -632 446 -694 107 -41 248 -72 345 -78 140 -8 118 -34 370 422 73 132 159 280 192 329 100 148 117 208 81 283 -20 43 -114 140 -213 218 -205 162 -280 243 -280 301 0 46 11 71 98 224 300 527 603 839 1111 1145 247 148 286 163 347 135 45 -20 138 -115 246 -250 86 -109 187 -209 237 -235 55 -28 117 -17 204 38 149 95 309 188 527 307 133 73 241 139 264 162 l39 38 -6 103 c-7 119 -52 302 -94 379 -69 127 -315 295 -545 372 -150 51 -337 68 -492 45z"/>
 </g>

</svg>