<!DOCTYPE svg PUBLIC "-//W3C//DTD SVG 20010904//EN" "http://www.w3.org/TR/2001/REC-SVG-20010904/DTD/svg10.dtd">
<svg version="1.0" xmlns="http://www.w3.org/2000/svg" width="256px" height="256px" viewBox="0 0 2560 2560" preserveAspectRatio="xMidYMid meet">
<g id="layer101" fill="#666666" stroke="none">
 <path d="M26 2539 c-23 -18 -26 -28 -26 -80 0 -60 37 -423 45 -446 3 -10 260 -13 1235 -13 975 0 1232 3 1235 13 8 23 45 386 45 446 0 52 -3 62 -26 80 -27 21 -28 21 -1254 21 -1226 0 -1227 0 -1254 -21z"/>
 <path d="M55 1893 c3 -21 32 -277 64 -569 37 -328 64 -540 73 -553 28 -45 63 -52 265 -49 l188 3 5 125 c6 147 22 185 94 219 81 40 162 21 220 -52 30 -38 31 -41 35 -168 l3 -129 278 0 278 0 3 129 c4 127 5 130 35 168 58 73 139 92 220 52 72 -34 88 -72 94 -219 l5 -125 188 -3 c202 -3 237 4 265 49 9 13 36 225 73 553 32 292 61 548 64 569 l5 37 -1230 0 -1230 0 5 -37z"/>
 <path d="M758 981 l-33 -29 0 -239 c0 -167 4 -254 14 -293 44 -180 185 -334 360 -396 95 -34 267 -34 362 0 175 61 320 221 361 397 9 36 13 135 13 292 l0 239 -33 29 c-44 40 -93 40 -133 0 l-29 -29 0 -225 c0 -198 -2 -233 -20 -291 -26 -83 -104 -172 -188 -213 -50 -25 -68 -28 -152 -28 -84 0 -102 3 -152 28 -84 41 -162 130 -188 213 -18 58 -20 93 -20 291 l0 225 -29 29 c-40 40 -89 40 -133 0z"/>
 </g>

</svg>