<!DOCTYPE svg PUBLIC "-//W3C//DTD SVG 20010904//EN" "http://www.w3.org/TR/2001/REC-SVG-20010904/DTD/svg10.dtd">
<svg version="1.0" xmlns="http://www.w3.org/2000/svg" width="240px" height="240px" viewBox="0 0 2400 2400" preserveAspectRatio="xMidYMid meet">
<g id="layer101" fill="#222222" stroke="none">
 <path d="M497 2245 c-92 -25 -163 -86 -206 -175 -25 -52 -26 -62 -25 -210 1 -433 155 -700 413 -717 l66 -5 90 58 c124 80 224 115 345 121 144 8 250 -25 408 -126 68 -44 86 -51 129 -51 82 0 166 35 233 96 129 120 199 341 201 629 0 109 -3 140 -20 186 -30 78 -80 132 -159 171 l-67 33 -680 2 c-543 1 -690 -1 -728 -12z"/>
 <path d="M1075 1216 c-157 -38 -296 -164 -355 -321 -31 -84 -38 -220 -15 -313 48 -199 230 -359 431 -382 148 -16 274 16 382 97 255 194 280 559 55 782 -76 74 -141 113 -228 136 -70 18 -199 18 -270 1z"/>
 </g>

</svg>